<svg xmlns="http://www.w3.org/2000/svg" width="29" height="29" viewBox="0 0 29 29">
    <g>
        <g fill="none">
            <path d="M14.5 0A14.5 14.5 0 1 1 0 14.5 14.5 14.5 0 0 1 14.5 0z" transform="translate(-196.124 -587.124) translate(196.124 587.124)"/>
            <path fill="#e9b171" d="M14.5 1c-3.606 0-6.996 1.404-9.546 3.954C2.404 7.504 1 10.894 1 14.5c0 3.606 1.404 6.996 3.954 9.546C7.504 26.596 10.894 28 14.5 28c3.606 0 6.996-1.404 9.546-3.954C26.596 21.496 28 18.106 28 14.5c0-3.606-1.404-6.996-3.954-9.546C21.496 2.404 18.106 1 14.5 1m0-1C22.508 0 29 6.492 29 14.5S22.508 29 14.5 29 0 22.508 0 14.5 6.492 0 14.5 0z" transform="translate(-196.124 -587.124) translate(196.124 587.124)"/>
        </g>
        <path fill="#e9b171" d="M10.238 14.481l3.062-3.065a.576.576 0 0 1 .817 0 .584.584 0 0 1 0 .82l-3.47 3.472a.578.578 0 0 1-.8.017l-3.491-3.486a.579.579 0 1 1 .817-.82z" transform="translate(-196.124 -587.124) rotate(-90 404.477 207.4)"/>
    </g>
</svg>
