<svg width="770" height="777" viewBox="0 0 770 777" fill="none" xmlns="http://www.w3.org/2000/svg">
<path d="M757.171 362.889C755.973 359.499 755.225 355.966 754.273 352.352C753.171 348.695 752.231 344.991 751.457 341.251C749.897 333.429 748.643 325.548 747.699 317.628C746.016 309.661 744.138 301.736 742.067 293.861C741.045 290.008 739.908 286.187 738.657 282.402C737.2 278.802 735.493 275.308 733.547 271.947C732.021 268.752 737.909 271.425 734.182 264.236C730.004 257.959 727.055 250.156 722.519 242.364C718.046 234.054 713.936 225.553 710.2 216.887C700.974 199.704 692.423 180.954 682.921 165.533L685.194 166.557C681.6 160.618 673.95 155.989 669.373 150.45C669.947 149.886 671.8 151.433 671.513 149.477C668.441 149.681 661.847 140.486 658.447 139.431C657.218 136.677 658.816 135.581 657.075 132.099L652.293 130.922C646.292 128.741 640.926 124.389 635.837 118.88C630.594 113.575 625.454 107.185 618.276 103.642C619.279 103.601 620.836 104.134 620.231 102.915C614.349 99.7669 608.596 96.3815 602.987 92.7676C597.12 89.1324 591.467 84.7906 584.996 81.5138C572.359 74.5609 559.979 66.4508 546.841 61.6175C548.265 61.2284 549.995 60.0815 549.002 58.3919C546.462 60.3887 538.404 57.3269 531.481 54.6133C529.741 50.077 518.589 52.4322 511.094 47.8447L512.015 47.4761C504.929 48.2031 503.618 42.4892 497.525 44.2402L494.413 40.605C490.491 43.7897 486.006 36.1609 480.24 36.847L480.179 37.7276C475.069 37.4716 473.062 34.7785 468.382 34.3074L468.065 33.7237C457.334 31.7781 451.405 29.0441 451.087 32.198C447.78 29.0441 461.757 32.6178 456.555 27.9689C420.377 24.4873 383.513 22.5621 347.346 25.4805C343.137 24.6921 340.495 24.7637 339.43 23.6476C335.918 24.8559 325.954 26.31 322.974 28.4604C324.162 28.2146 320.384 27.1599 318.448 27.293C311.659 27.1497 311.946 31.6553 304.676 32.1365C307.277 30.5698 308.014 29.2898 306.816 28.3375C301.327 32.3823 293.258 34.0412 286.397 36.6626C287.349 35.8434 288.978 35.0959 288.445 34.1641C281.502 39.0076 274.017 36.9391 268.057 41.3935L269.941 38.6902C258.555 40.4105 268.068 43.5849 258.483 45.6533C260.48 44.2914 259.456 43.8716 259.589 43.0012C252.175 49.2988 237.993 53.149 230.507 58.6274C230.886 58.1564 230.538 57.7468 230.538 57.7468C226.186 60.0815 221.578 62.1193 216.919 64.3413C212.208 66.461 207.529 68.9391 203.371 72.5641C199.582 73.8748 202.194 67.8741 193.551 73.9362C195.835 76.998 179.195 84.4937 186.772 84.9135L180.137 88.2825L173.348 92.6857C168.903 95.6757 164.879 98.6351 162.903 100.919C165.237 97.3654 156.585 99.8434 162.36 95.1228L156.441 96.6793C156.165 94.9385 161.438 93.597 158.817 93.1157C155.929 95.5938 147.87 103.09 145.085 104.984C141.409 111.476 139.607 118.982 131.753 126.764C134.61 122.167 126.653 125.74 128.845 122.863L125.609 130.717C124.093 134.7 122.916 138.899 122.916 138.899C120.581 141.735 120.212 137.414 117.355 142.042C118.277 142.524 117.171 144.654 116.69 146.405C115.44 147.142 107.197 158.252 103.234 157.054C101.012 157.31 106.685 152.088 102.907 154.259C98.2474 159.287 99.4762 160.689 95.3085 166.076L94.8375 165.871C91.6836 169.168 88.161 177.463 92.7485 174.78C94.7146 172.363 90.2397 174.38 93.8749 171.339C93.7213 175.189 89.5229 181.794 85.5191 187.211C86.3997 185.03 85.4167 184.682 85.0993 183.33C81.9019 192.536 78.2136 201.563 74.0503 210.374C75.5044 211.418 73.2106 205.53 74.7978 204.722C70.4868 209.688 67.3841 215.678 65.2029 221.761C63.073 227.884 60.9636 233.629 56.9905 237.705C57.4717 235.974 59.6836 237.93 59.1818 237.817C56.2839 243.306 54.0516 242.005 53.1607 246.05C51.6349 245.815 51.2049 250.781 50.3857 254.938C50.6621 257.376 49.3309 255.686 50.4266 252.194C50.0273 255.184 48.3684 262.342 45.9927 270.196C43.543 277.826 40.8726 285.382 37.985 292.857C39.009 292.898 39.4903 301.786 38.6301 304.684L36.6538 302.954C34.5956 305.34 34.2884 312.979 32.1994 313.03C33.3258 320.085 36.1828 287.84 36.0906 297.015C33.6125 298.776 36.6129 309.937 34.0017 307.316C32.5681 313.378 33.3975 319.625 30.6225 325.093C31.2471 323.475 28.1956 319.491 27.6017 324.499C26.6801 333.336 28.3185 327.192 28.0113 334.401L28.2877 338.978C30.4996 339.603 26.7927 346.699 29.8135 343.822C27.8167 344.661 28.9533 356.519 25.4717 355.249L22.625 353.734C22.5431 357.584 25.4103 360.298 26.5469 363.38C26.2397 363.851 25.5946 364.803 25.1236 364.578C29.6394 365.5 24.2941 373.641 27.5812 378.3C26.6084 382.232 26.2602 387.28 25.9018 391.796C25.9428 396.312 25.7994 400.316 24.4682 402.241C26.1578 408.344 28.0829 413.781 27.4481 420.806C26.9565 419.454 26.7313 417.56 25.7277 417.232C24.6116 421.717 25.8609 422.721 26.7927 426.643C25.7687 425.834 25.3181 435.603 24.458 440.713C26.7415 446.601 28.8407 444.143 30.4279 444.532C27.0487 450.738 35.3841 461.029 33.3565 468.473C32.097 466.61 29.1889 460.25 29.1274 465.452C26.1578 471.883 35.1997 475.682 35.3329 484.878L38.3946 481.785C37.1556 486.25 43.7399 493.92 39.8589 494.104C41.6509 496.684 41.8967 504.538 45.0199 502.48C46.0849 509.833 49.6074 518.096 52.4439 525.786C55.0346 533.6 58.6596 540.174 57.4615 545.765C58.9258 547.413 60.6666 552.462 61.8749 550.649C62.1719 546.604 58.4343 546.86 59.1204 545.079C60.042 546.738 61.1172 546.676 61.6599 546.635C62.8887 551.11 64.2301 554.499 59.6324 551.929C62.2333 562.179 69.258 558.841 74.8695 570.402C73.2618 570.658 73.2823 571.785 75.4532 574.908L81.3821 579.7C85.1914 587.134 80.9623 585.609 78.9041 587.145C81.5972 590.79 84.362 595.603 87.3009 596.053L87.9665 602.289C87.4647 597.743 91.4481 604.378 93.2298 605.699L91.4481 604.368C91.0794 605.669 94.7556 609.468 96.5885 611.383C97.4692 609.929 94.8068 605.29 93.4449 602.709C95.7284 603.887 97.6433 606.887 100.51 608.505C97.9197 609.222 103.47 615.438 105.395 618.458C107.381 622.124 110.126 620.506 110.781 621.51C109.849 622.421 115.092 626.569 111.57 625.401C110.32 624.633 110.392 622.237 107.965 621.264C109.04 623.875 107.115 625.114 112.143 628.197C115.922 630.501 115.133 624.142 119.301 631.074C117.427 629.938 116.423 630.327 114.662 629.712L118.748 636.143L120.632 634.832C120.888 635.969 120.274 635.59 120.366 636.143C123.622 636.153 128.589 644.099 131.63 643.454C134.487 645.881 136.35 649.905 138.829 652.537L138.183 652.22C140.518 656.152 145.474 659.459 149.212 660.78L148.741 661.026C150.41 662.757 154.793 666.371 157.926 667.262C161.684 672.208 154.158 675.178 161.367 676.98C166.415 680.656 171.668 679.458 170.552 676.806C174.505 680.718 179.543 683.81 184.315 687.025C189.342 689.893 194.247 692.688 197.678 696.876C199.511 696.917 198.958 695.904 202.02 697.132C215.065 707.045 233.282 710.393 242.857 720.377C238.238 719.21 241.659 722.323 241.239 723.572C245.519 723.47 244.772 727.32 247.403 724.637C247.844 722.548 248.519 721.913 244.669 719.374C254.049 721.862 267.74 726.685 272.143 730.423C269.931 728.59 272.082 728.712 274.232 728.846C272.522 731.764 279.086 734.764 284.697 734.754L285.988 733.013L288.814 735.86C290.995 735.758 292.111 732.368 296.77 735.553C296.842 736.372 296.955 737.212 297.764 738.01C303.621 737.621 311.567 737.488 317.22 739.772L321.561 743.386C324.183 743.458 328.729 742.373 324.408 740.867C334.249 744.144 340.792 745.383 343.751 748.383C362.163 743.868 387.333 745.127 407.803 743.683L407.301 745.209C412.902 746.336 409.963 742.455 413.865 743.305C412.185 744.82 418.329 746.192 414.131 748.158C422.251 749.51 424.074 744.677 429.04 743.284C429.563 741.216 425.118 745.158 425.805 742.536C426.573 741.707 436.761 742.403 437.529 739.27C439.639 740.13 438.471 742.526 437.591 743.878L442.148 741.728C448.64 744.257 429.675 749.92 436.464 753.217L440.919 752.06C445.752 754.476 429.389 757.385 441.001 756.688C445.783 754.476 449.213 749.582 444.636 748.947C454.63 746.469 448.128 741.513 458.798 739.598C460.416 740.069 458.347 740.765 456.146 741.461C453.924 741.994 451.599 742.629 452.869 743.673C458.511 745.506 462.658 740.007 467.287 739.854C462.116 740.028 465.607 736.014 468.598 734.682C474.26 734.672 465.802 738.318 473.441 736.659C474.281 734.662 480.845 731.651 474.567 732.03C476.247 727.576 482.667 731.068 485.893 727.125C489.17 729.112 479.913 735.194 488.647 734.375C486.681 732.471 497.618 727.607 492.139 725.364C495.488 724.944 496.491 726.787 494.699 729.173C499.768 729.04 503.997 720.623 507.254 725.016L507.858 721.913C509.568 722.22 511.81 722.108 514.657 722.62C516.664 721.913 519.521 719.896 522.02 718.554C524.446 717.049 526.464 716.087 527.129 718.063C528.194 717.08 536.97 713.045 532.423 712.103C526.351 713.127 527.068 716.988 522.562 714.929C527.58 715.953 530.13 710.823 532.751 708.396L533.918 709.584C535.495 708.14 539.888 706.4 540.267 704.331C539.264 705.816 540.472 706.43 542.11 706.062L542.95 702.99C549.831 698.32 546.688 705.969 553.6 701.689C553.692 701.843 548.941 706.082 548.941 706.082C549.913 705.038 553.671 706.154 556.6 703.317C556.846 700.604 557.972 696.846 558.218 694.695C561.597 691.511 561.208 695.77 563.87 691.511L560.194 696.835C559.785 697.931 565.417 697.89 570.67 694.634C573.66 691.93 577.111 686.135 571.213 688.316C573.803 686.708 578.196 685.602 576.988 688.203C582.518 683.974 574.93 686.698 579.282 682.479C582.159 682.417 589.337 679.427 594.345 678.393L591.406 685.162L594.816 682.643C592.123 688.336 598.369 682.786 597.693 687.159C600.325 685.797 602.557 682.807 604.329 680.482C594.56 681.598 607.81 669.423 602.998 667.375C611.323 659.736 615.634 671.379 620.027 658.077C617.805 658.507 619.668 652.148 615.234 657.954C620.805 653.561 615.757 651.339 623.15 647.161C619.832 652.691 631.219 646.035 626.396 654.042C625.822 652.527 621.901 656.582 621.163 657.841C624.501 657.135 623.733 661.651 629.222 656.664C632.274 653.305 636.8 649.086 634.496 648.001C632.55 646.27 629.611 652.803 629.929 648.984C635.95 642.482 639.677 644.038 638.848 638.089C635.397 642.543 632.437 641.55 631.25 640.198C631.393 640.331 634.885 634.771 634.885 634.771L635.284 636.89C643.108 630.101 635.069 632.477 642.084 625.432L647.757 624.244C648.32 627.971 636.994 634.156 641.664 636.102C646.241 631.361 645.893 628.125 650.982 624.377C650.357 625.667 649.18 627.132 648.586 628.432C650.265 626.825 656.645 629.2 660.208 619.79C662.133 615.069 659.696 617.711 658.427 616.503C664.304 607.706 664.734 604.102 668.544 598.542C670.52 601.716 675.988 589.172 674.401 597.231C670.653 598.828 661.755 611.065 662.082 616.195C664.847 615.939 663.485 617.527 661.662 619.738C659.645 621.797 657.085 624.377 657.894 626.599C663.803 620.343 666.578 623.148 669.476 623.701C671.073 621.868 671.616 619.278 672.148 617.865C670.786 615.499 668.933 618.049 666.813 616.574C673.1 609.294 677.555 601.009 678.692 595.429C681.62 593.585 683.084 595.787 680.996 598.982C687.355 589.449 693.212 578.717 699.765 569.941C692.608 573.925 705.172 559.107 699.694 561.555C695.987 566.122 690.836 568.805 690.898 565.231C692.976 562.323 692.393 566.214 693.929 565.364C694.43 560.469 700.687 560.971 699.448 555.247C696.171 565.129 702.971 559.404 704.988 562.609C706.677 554.94 706.862 563.971 710.118 557.193C711.828 549.533 714.572 540.614 717.563 532.821C724.085 524.148 726.789 507.836 729.912 499.081C732.697 494.81 735.319 499.091 737.264 494.032C738.77 487.888 732.339 497.483 736.261 488.892L736.732 489.957C736.609 487.038 743.398 473.89 739.015 470.081L742.128 473.737C742.907 472.119 742.436 470.347 742.395 468.862C743.654 469.067 745.303 467.316 745.405 470.275C749.808 465.237 747.084 458.121 748.119 451.925L745.221 455.54C744.975 444.614 748.549 437.876 749.03 427.452L751.283 427.984L750.238 421.666C752.348 423.376 754.058 417.744 752.389 414.334L754.754 422.649L756.372 428.435C756.864 430.022 756.966 431.066 756.966 431.066C755.051 435.429 754.836 425.865 752.256 428.465C750.105 430.657 749.143 440.241 751.109 442.115C751.918 438.47 751.457 438.214 751.078 435.275C754.406 434.425 753.423 440.016 755.092 443.098C755.266 441.132 756.638 438.48 755.707 437.937C756.659 441.952 756.3 445.884 755.399 452.304C754.846 447.778 753.106 454.342 752.471 452.55C755.133 453.492 755.072 459.8 753.034 467.562C748.477 472.405 751.314 482.584 748.119 491.442C746.197 486.602 745.344 481.404 745.62 476.204C742.814 481.427 744.105 482.43 741.289 487.632C742.63 490.868 745.241 493.664 744.555 501.405L742.466 501.19C741.422 508.041 744.125 508.952 740.623 517.072C737.551 523.994 734.684 531.07 732.062 537.767L723.246 555.37L721.198 554.858C721.812 558.688 719.856 563.695 717.511 568.784C715.156 573.884 711.593 578.625 710.313 582.864C705.643 588.629 701.936 595.674 698.506 601.9C694.686 607.85 690.928 612.806 687.283 614.772L676.869 630.613C673.193 635.59 669.189 640.198 665.287 644.939C661.345 649.649 657.31 654.339 653.102 659.06C648.566 663.453 643.681 667.713 638.592 672.116L639.882 666.863C637.844 671.717 636.411 667.672 633.246 671.143C638.848 669.32 630.523 677.861 629.222 681.527C618.654 687.527 607.626 698.238 600.325 706.553L598.82 705.089C592.02 714.305 578.872 717.93 567.229 724.361C565.54 724.494 562.406 723.767 558.955 725.702C553.979 731.825 550.425 733.28 541.65 739.833C534.758 743.663 522.317 746.909 514.462 748.465C507.919 751.927 501.345 755.685 494.218 757.866C487.122 760.139 479.882 762.167 472.591 764.133L461.624 767.051L450.391 768.976C442.885 770.318 435.369 771.813 427.822 773.666L425.364 771.567C418.114 773.594 410.25 774.434 402.232 775.243C394.204 775.765 386.002 776.892 377.953 776.011C361.856 774.721 346.311 774.485 333.563 773.216L336.522 769.447C328.883 766.99 318.479 767.809 319.964 771.024C316.103 769.765 311.055 769.57 306.427 769.007C301.87 768.095 297.712 766.99 295.644 764.696C287.902 761.911 285.455 764.071 278.666 762.894C270.822 760.293 265.651 758.009 260.48 756.043C255.298 754.138 250.127 752.551 242.693 750.237L246.215 751.804C248.151 751.537 248.909 749.92 245.396 748.353C242.509 747.851 237.563 745.926 233.968 744.554C230.415 743.069 227.937 742.629 229.534 746.151C222.622 741.236 213.693 737.591 204.784 733.792C196.32 730.284 188.544 725.306 181.816 719.087C182.277 720.961 178.652 719.066 176.686 718.933C173.538 717.026 170.464 715.001 167.47 712.861L159.134 705.795C153.666 701.218 148.352 697.102 142.966 694.501C141.532 692.576 147.348 694.9 142.709 691.244C139.586 689.534 141.511 692.596 137.6 690.548C128.005 683.575 119.495 674.963 111.488 666.443C104.033 657.34 97.3463 648.032 89.8609 640.352C63.4314 612.652 43.2279 577.591 28.2365 544.198L29.3322 544.178C21.089 534.204 22.9937 515.956 14.1156 508.655C13.962 505.655 11.6682 497.801 13.9825 499.377C11.4634 495.036 10.3677 488.216 9.06727 480.956C8.44718 477.249 7.67511 473.57 6.75302 469.927C5.99526 466.241 5.22726 462.585 3.81414 459.257C3.91654 460.558 4.23399 461.254 4.88935 462.657C4.88935 455.427 3.68102 448.884 2.43174 442.197C1.8071 438.859 1.17222 435.49 0.690938 432.019C0.387526 428.4 0.401238 424.761 0.731905 421.144C1.23366 422.629 1.69446 425.353 2.70822 425.701C4.32614 419.854 -2.20698 412.317 2.45222 408.897C2.23718 405.61 -0.0873026 406.644 0.158457 408.682C-0.435463 392.277 0.824065 375.453 0.926465 358.311C0.649985 349.71 2.38055 341.231 3.00519 332.619C4.16231 324.089 4.22374 315.313 6.47654 307.029C15.3751 283.918 14.7197 307.521 16.0407 287.993C17.3309 286.734 14.5457 286.396 15.5799 286.406C15.8666 282.617 17.8839 280.19 19.6759 278.03C21.6727 275.93 23.4852 274.108 23.1575 271.302C19.6247 272.367 22.7581 267.564 21.1095 266.837C28.1649 253.495 31.2676 251.631 33.7457 239.998L34.8004 241.411C36.9405 227.383 45.2349 213.651 46.9245 201.24C83.9831 134.178 137.702 78.8412 204.713 43.3494L230.026 31.4197C238.607 27.846 247.444 24.9173 256.128 21.6303C260.5 20.0841 264.811 18.3228 269.235 16.9404L282.69 13.3973C291.701 11.2162 300.569 8.3183 309.724 6.7823C328.074 3.90486 346.434 0.546147 365.194 0.535907C383.872 -1.01033 402.652 1.12982 421.473 2.65558C438.625 8.79959 439.69 9.27062 459.156 10.4482C458.255 10.9807 457.037 10.9397 458.194 11.7487C459.873 8.25687 471.526 14.3497 474.035 11.7282C487.47 15.6399 500.69 18.2511 513.285 23.2892L532.587 30.0988C539.151 32.2799 545.275 35.7718 551.838 38.7311C547.568 37.0722 544.394 38.598 549.319 40.7177L555.33 41.2297L555.75 42.4687C559.283 43.6156 563.676 43.9125 560.717 41.2809C564.853 43.1548 569.113 44.8137 573.107 46.9538L584.852 53.7941C592.542 58.5557 600.581 62.8054 607.769 68.2735L629.089 84.8725C636.329 90.1973 642.268 97.0684 648.832 103.11C662.164 115.07 672.906 129.437 684.6 142.698L700.175 164.192C702.735 167.786 705.49 171.247 707.927 174.923L714.869 186.187C718.423 193.836 724.321 202.121 728.919 211.377L742.886 237.92C759.936 289.601 765.895 337.432 769.408 391.417C769.295 391.489 760.274 384.382 757.171 362.889Z" fill="#E9B171"/>
</svg>
